{
  "accessors": [
    {
      "name": "Sphere_Sphere.005-Mesh_0_positions",
      "componentType": 5126,
      "count": 30840,
      "min": [
        -0.6925179958343506,
        0.014170999638736248,
        -0.46702200174331665
      ],
      "max": [
        0.7068120241165161,
        2.7437870502471924,
        0.29781898856163025
      ],
      "type": "VEC3",
      "bufferView": 0,
      "byteOffset": 0
    },
    {
      "name": "Sphere_Sphere.005-Mesh_0_normals",
      "componentType": 5126,
      "count": 30840,
      "min": [
        -1,
        -0.9999819993972778,
        -1
      ],
      "max": [
        1,
        0.9999819993972778,
        1
      ],
      "type": "VEC3",
      "bufferView": 1,
      "byteOffset": 0
    },
    {
      "name": "Sphere_Sphere.005-Mesh_0_texcoords",
      "componentType": 5126,
      "count": 30840,
      "min": [
        0,
        1
      ],
      "max": [
        0,
        1
      ],
      "type": "VEC2",
      "bufferView": 2,
      "byteOffset": 0
    },
    {
      "name": "Sphere_Sphere.005-Mesh_0_indices",
      "componentType": 5123,
      "count": 82554,
      "min": [
        0
      ],
      "max": [
        30839
      ],
      "type": "SCALAR",
      "bufferView": 3,
      "byteOffset": 0
    },
    {
      "name": "Sphere_Sphere.005-Mesh_1_positions",
      "componentType": 5126,
      "count": 3160,
      "min": [
        -0.25202199816703796,
        1.4615600109100342,
        0.12157099694013596
      ],
      "max": [
        0.24961799383163452,
        1.6111090183258057,
        0.20305299758911133
      ],
      "type": "VEC3",
      "bufferView": 0,
      "byteOffset": 370080
    },
    {
      "name": "Sphere_Sphere.005-Mesh_1_normals",
      "componentType": 5126,
      "count": 3160,
      "min": [
        -0.9999762177467346,
        -0.9999808073043823,
        -0.9999569654464722
      ],
      "max": [
        0.9999762177467346,
        0.9999808073043823,
        0.9999569654464722
      ],
      "type": "VEC3",
      "bufferView": 1,
      "byteOffset": 370080
    },
    {
      "name": "Sphere_Sphere.005-Mesh_1_texcoords",
      "componentType": 5126,
      "count": 3160,
      "min": [
        0,
        1
      ],
      "max": [
        0,
        1
      ],
      "type": "VEC2",
      "bufferView": 2,
      "byteOffset": 246720
    },
    {
      "name": "Sphere_Sphere.005-Mesh_1_indices",
      "componentType": 5123,
      "count": 7560,
      "min": [
        0
      ],
      "max": [
        3159
      ],
      "type": "SCALAR",
      "bufferView": 3,
      "byteOffset": 165108
    },
    {
      "name": "Sphere_Sphere.005-Mesh_2_positions",
      "componentType": 5126,
      "count": 15827,
      "min": [
        -0.4415990114212036,
        0.5736830234527588,
        -0.38970500230789185
      ],
      "max": [
        0.4859920144081116,
        1.178948998451233,
        0.28998199105262756
      ],
      "type": "VEC3",
      "bufferView": 0,
      "byteOffset": 408000
    },
    {
      "name": "Sphere_Sphere.005-Mesh_2_normals",
      "componentType": 5126,
      "count": 15827,
      "min": [
        -0.9991307258605957,
        -0.9996897578239441,
        -0.9999492764472961
      ],
      "max": [
        0.9991307258605957,
        0.9996897578239441,
        0.9999492764472961
      ],
      "type": "VEC3",
      "bufferView": 1,
      "byteOffset": 408000
    },
    {
      "name": "Sphere_Sphere.005-Mesh_2_texcoords",
      "componentType": 5126,
      "count": 15827,
      "min": [
        0,
        0
      ],
      "max": [
        1,
        1
      ],
      "type": "VEC2",
      "bufferView": 2,
      "byteOffset": 272000
    },
    {
      "name": "Sphere_Sphere.005-Mesh_2_indices",
      "componentType": 5123,
      "count": 87552,
      "min": [
        0
      ],
      "max": [
        15826
      ],
      "type": "SCALAR",
      "bufferView": 3,
      "byteOffset": 180228
    },
    {
      "name": "Sphere_Sphere.005-Mesh_3_positions",
      "componentType": 5126,
      "count": 15827,
      "min": [
        -0.43199899792671204,
        0.5832419991493225,
        -0.3800710141658783
      ],
      "max": [
        0.4764859974384308,
        1.1693090200424194,
        0.28035399317741394
      ],
      "type": "VEC3",
      "bufferView": 0,
      "byteOffset": 597924
    },
    {
      "name": "Sphere_Sphere.005-Mesh_3_normals",
      "componentType": 5126,
      "count": 15827,
      "min": [
        -0.9991307258605957,
        -0.9996366500854492,
        -0.9998990893363953
      ],
      "max": [
        0.9991307258605957,
        0.9996366500854492,
        0.9998990893363953
      ],
      "type": "VEC3",
      "bufferView": 1,
      "byteOffset": 597924
    },
    {
      "name": "Sphere_Sphere.005-Mesh_3_texcoords",
      "componentType": 5126,
      "count": 15827,
      "min": [
        0,
        0
      ],
      "max": [
        1,
        1
      ],
      "type": "VEC2",
      "bufferView": 2,
      "byteOffset": 398616
    },
    {
      "name": "Sphere_Sphere.005-Mesh_3_indices",
      "componentType": 5123,
      "count": 87552,
      "min": [
        0
      ],
      "max": [
        15826
      ],
      "type": "SCALAR",
      "bufferView": 3,
      "byteOffset": 355332
    }
  ],
  "asset": {
    "generator": "obj2gltf",
    "version": "2.0"
  },
  "buffers": [
    {
      "name": "untitled",
      "byteLength": 2631364,
      "uri": "data:application/octet-stream;base64,"
    }
  ],
  "bufferViews": [
    {
      "name": "bufferView_0",
      "buffer": 0,
      "byteLength": 787848,
      "byteOffset": 0,
      "byteStride": 12,
      "target": 34962
    },
    {
      "name": "bufferView_1",
      "buffer": 0,
      "byteLength": 787848,
      "byteOffset": 787848,
      "byteStride": 12,
      "target": 34962
    },
    {
      "name": "bufferView_2",
      "buffer": 0,
      "byteLength": 525232,
      "byteOffset": 1575696,
      "byteStride": 8,
      "target": 34962
    },
    {
      "name": "bufferView_3",
      "buffer": 0,
      "byteLength": 530436,
      "byteOffset": 2100928,
      "target": 34963
    }
  ],
  "materials": [
    {
      "name": "Material.002",
      "pbrMetallicRoughness": {
        "baseColorFactor": [
          0.8,
          0.8,
          0.8,
          1
        ],
        "metallicFactor": 0,
        "roughnessFactor": 0.775
      },
      "emissiveFactor": [
        0,
        0,
        0
      ],
      "alphaMode": "OPAQUE",
      "doubleSided": false
    },
    {
      "name": "Material.003",
      "pbrMetallicRoughness": {
        "baseColorFactor": [
          0.8,
          0.8,
          0.8,
          1
        ],
        "metallicFactor": 0,
        "roughnessFactor": 0.775
      },
      "emissiveFactor": [
        0,
        0,
        0
      ],
      "alphaMode": "OPAQUE",
      "doubleSided": false
    },
    {
      "name": "Material.004",
      "pbrMetallicRoughness": {
        "baseColorFactor": [
          0.8,
          0.8,
          0.8,
          1
        ],
        "metallicFactor": 0,
        "roughnessFactor": 0.775
      },
      "emissiveFactor": [
        0,
        0,
        0
      ],
      "alphaMode": "OPAQUE",
      "doubleSided": false
    },
    {
      "name": "Material.005",
      "pbrMetallicRoughness": {
        "baseColorFactor": [
          0.8,
          0.8,
          0.8,
          1
        ],
        "metallicFactor": 0,
        "roughnessFactor": 0.775
      },
      "emissiveFactor": [
        0,
        0,
        0
      ],
      "alphaMode": "OPAQUE",
      "doubleSided": false
    }
  ],
  "meshes": [
    {
      "name": "Sphere_Sphere.005-Mesh",
      "primitives": [
        {
          "attributes": {
            "POSITION": 0,
            "NORMAL": 1,
            "TEXCOORD_0": 2
          },
          "indices": 3,
          "material": 0,
          "mode": 4
        },
        {
          "attributes": {
            "POSITION": 4,
            "NORMAL": 5,
            "TEXCOORD_0": 6
          },
          "indices": 7,
          "material": 1,
          "mode": 4
        },
        {
          "attributes": {
            "POSITION": 8,
            "NORMAL": 9,
            "TEXCOORD_0": 10
          },
          "indices": 11,
          "material": 2,
          "mode": 4
        },
        {
          "attributes": {
            "POSITION": 12,
            "NORMAL": 13,
            "TEXCOORD_0": 14
          },
          "indices": 15,
          "material": 3,
          "mode": 4
        }
      ]
    }
  ],
  "nodes": [
    {
      "name": "Sphere_Sphere.005",
      "mesh": 0
    }
  ],
  "scene": 0,
  "scenes": [
    {
      "nodes": [
        0
      ]
    }
  ]
}
