{
  "accessors": [
    {
      "name": "Sphere_Sphere.005_Material.009_0_positions",
      "componentType": 5126,
      "count": 30803,
      "min": [
        -3.9001829624176025,
        0.07980500161647797,
        -25.875221252441406
      ],
      "max": [
        3.9806809425354004,
        15.452680587768555,
        -21.567726135253906
      ],
      "type": "VEC3",
      "bufferView": 0,
      "byteOffset": 0
    },
    {
      "name": "Sphere_Sphere.005_Material.009_0_normals",
      "componentType": 5126,
      "count": 30803,
      "min": [
        -1,
        -0.9999814033508301,
        -1
      ],
      "max": [
        1,
        0.9999814033508301,
        1
      ],
      "type": "VEC3",
      "bufferView": 1,
      "byteOffset": 0
    },
    {
      "name": "Sphere_Sphere.005_Material.009_0_texcoords",
      "componentType": 5126,
      "count": 30803,
      "min": [
        0,
        1
      ],
      "max": [
        0,
        1
      ],
      "type": "VEC2",
      "bufferView": 2,
      "byteOffset": 0
    },
    {
      "name": "Sphere_Sphere.005_Material.009_0_indices",
      "componentType": 5123,
      "count": 82554,
      "min": [
        0
      ],
      "max": [
        30802
      ],
      "type": "SCALAR",
      "bufferView": 3,
      "byteOffset": 0
    },
    {
      "name": "Sphere_Sphere.005_Material.001_0_positions",
      "componentType": 5126,
      "count": 3198,
      "min": [
        -1.4193609952926636,
        8.23133373260498,
        -22.56033706665039
      ],
      "max": [
        1.4058209657669067,
        9.07357406616211,
        -22.1014404296875
      ],
      "type": "VEC3",
      "bufferView": 0,
      "byteOffset": 369636
    },
    {
      "name": "Sphere_Sphere.005_Material.001_0_normals",
      "componentType": 5126,
      "count": 3198,
      "min": [
        -0.9999762177467346,
        -0.9999808073043823,
        -0.9999576807022095
      ],
      "max": [
        0.9999762177467346,
        0.9999808073043823,
        0.9999576807022095
      ],
      "type": "VEC3",
      "bufferView": 1,
      "byteOffset": 369636
    },
    {
      "name": "Sphere_Sphere.005_Material.001_0_texcoords",
      "componentType": 5126,
      "count": 3198,
      "min": [
        0,
        1
      ],
      "max": [
        0,
        1
      ],
      "type": "VEC2",
      "bufferView": 2,
      "byteOffset": 246424
    },
    {
      "name": "Sphere_Sphere.005_Material.001_0_indices",
      "componentType": 5123,
      "count": 7560,
      "min": [
        0
      ],
      "max": [
        3197
      ],
      "type": "SCALAR",
      "bufferView": 3,
      "byteOffset": 165108
    },
    {
      "name": "Sphere_Sphere.005_Material.010_0_positions",
      "componentType": 5126,
      "count": 15827,
      "min": [
        -2.4870340824127197,
        3.2309141159057617,
        -25.43977928161621
      ],
      "max": [
        2.7370479106903076,
        6.639701843261719,
        -21.61186408996582
      ],
      "type": "VEC3",
      "bufferView": 0,
      "byteOffset": 408012
    },
    {
      "name": "Sphere_Sphere.005_Material.010_0_normals",
      "componentType": 5126,
      "count": 15827,
      "min": [
        -0.9991337656974792,
        -0.9996901750564575,
        -0.9999492764472961
      ],
      "max": [
        0.9991337656974792,
        0.9996901750564575,
        0.9999492764472961
      ],
      "type": "VEC3",
      "bufferView": 1,
      "byteOffset": 408012
    },
    {
      "name": "Sphere_Sphere.005_Material.010_0_texcoords",
      "componentType": 5126,
      "count": 15827,
      "min": [
        0,
        0
      ],
      "max": [
        1,
        1
      ],
      "type": "VEC2",
      "bufferView": 2,
      "byteOffset": 272008
    },
    {
      "name": "Sphere_Sphere.005_Material.010_0_indices",
      "componentType": 5123,
      "count": 87552,
      "min": [
        0
      ],
      "max": [
        15826
      ],
      "type": "SCALAR",
      "bufferView": 3,
      "byteOffset": 180228
    },
    {
      "name": "Sphere_Sphere.005_Material.011_0_positions",
      "componentType": 5126,
      "count": 15827,
      "min": [
        -2.4329659938812256,
        3.2847468852996826,
        -25.385522842407227
      ],
      "max": [
        2.683511972427368,
        6.5854082107543945,
        -21.666088104248047
      ],
      "type": "VEC3",
      "bufferView": 0,
      "byteOffset": 597936
    },
    {
      "name": "Sphere_Sphere.005_Material.011_0_normals",
      "componentType": 5126,
      "count": 15827,
      "min": [
        -0.9991337656974792,
        -0.9996366500854492,
        -0.9998990893363953
      ],
      "max": [
        0.9991337656974792,
        0.9996366500854492,
        0.9998990893363953
      ],
      "type": "VEC3",
      "bufferView": 1,
      "byteOffset": 597936
    },
    {
      "name": "Sphere_Sphere.005_Material.011_0_texcoords",
      "componentType": 5126,
      "count": 15827,
      "min": [
        0,
        0
      ],
      "max": [
        1,
        1
      ],
      "type": "VEC2",
      "bufferView": 2,
      "byteOffset": 398624
    },
    {
      "name": "Sphere_Sphere.005_Material.011_0_indices",
      "componentType": 5123,
      "count": 87552,
      "min": [
        0
      ],
      "max": [
        15826
      ],
      "type": "SCALAR",
      "bufferView": 3,
      "byteOffset": 355332
    }
  ],
  "asset": {
    "generator": "obj2gltf",
    "version": "2.0"
  },
  "buffers": [
    {
      "name": "nik,grv3",
      "byteLength": 2631396,
      "uri": "data:application/octet-stream;base64,"
    }
  ],
  "bufferViews": [
    {
      "name": "bufferView_0",
      "buffer": 0,
      "byteLength": 787860,
      "byteOffset": 0,
      "byteStride": 12,
      "target": 34962
    },
    {
      "name": "bufferView_1",
      "buffer": 0,
      "byteLength": 787860,
      "byteOffset": 787860,
      "byteStride": 12,
      "target": 34962
    },
    {
      "name": "bufferView_2",
      "buffer": 0,
      "byteLength": 525240,
      "byteOffset": 1575720,
      "byteStride": 8,
      "target": 34962
    },
    {
      "name": "bufferView_3",
      "buffer": 0,
      "byteLength": 530436,
      "byteOffset": 2100960,
      "target": 34963
    }
  ],
  "materials": [
    {
      "name": "Material.009",
      "pbrMetallicRoughness": {
        "baseColorFactor": [
          0.5,
          0.5,
          0.5,
          1
        ],
        "metallicFactor": 0,
        "roughnessFactor": 1
      },
      "emissiveFactor": [
        0,
        0,
        0
      ],
      "alphaMode": "OPAQUE",
      "doubleSided": false
    },
    {
      "name": "Material.001",
      "pbrMetallicRoughness": {
        "baseColorFactor": [
          0.5,
          0.5,
          0.5,
          1
        ],
        "metallicFactor": 0,
        "roughnessFactor": 1
      },
      "emissiveFactor": [
        0,
        0,
        0
      ],
      "alphaMode": "OPAQUE",
      "doubleSided": false
    },
    {
      "name": "Material.010",
      "pbrMetallicRoughness": {
        "baseColorFactor": [
          0.5,
          0.5,
          0.5,
          1
        ],
        "metallicFactor": 0,
        "roughnessFactor": 1
      },
      "emissiveFactor": [
        0,
        0,
        0
      ],
      "alphaMode": "OPAQUE",
      "doubleSided": false
    },
    {
      "name": "Material.011",
      "pbrMetallicRoughness": {
        "baseColorFactor": [
          0.5,
          0.5,
          0.5,
          1
        ],
        "metallicFactor": 0,
        "roughnessFactor": 1
      },
      "emissiveFactor": [
        0,
        0,
        0
      ],
      "alphaMode": "OPAQUE",
      "doubleSided": false
    }
  ],
  "meshes": [
    {
      "name": "Sphere_Sphere.005_Material.009",
      "primitives": [
        {
          "attributes": {
            "POSITION": 0,
            "NORMAL": 1,
            "TEXCOORD_0": 2
          },
          "indices": 3,
          "material": 0,
          "mode": 4
        }
      ]
    },
    {
      "name": "Sphere_Sphere.005_Material.001",
      "primitives": [
        {
          "attributes": {
            "POSITION": 4,
            "NORMAL": 5,
            "TEXCOORD_0": 6
          },
          "indices": 7,
          "material": 1,
          "mode": 4
        }
      ]
    },
    {
      "name": "Sphere_Sphere.005_Material.010",
      "primitives": [
        {
          "attributes": {
            "POSITION": 8,
            "NORMAL": 9,
            "TEXCOORD_0": 10
          },
          "indices": 11,
          "material": 2,
          "mode": 4
        }
      ]
    },
    {
      "name": "Sphere_Sphere.005_Material.011",
      "primitives": [
        {
          "attributes": {
            "POSITION": 12,
            "NORMAL": 13,
            "TEXCOORD_0": 14
          },
          "indices": 15,
          "material": 3,
          "mode": 4
        }
      ]
    }
  ],
  "nodes": [
    {
      "name": "Sphere_Sphere.005",
      "children": [
        1,
        2,
        3,
        4
      ]
    },
    {
      "name": "Sphere_Sphere.005_Material.009",
      "mesh": 0
    },
    {
      "name": "Sphere_Sphere.005_Material.001",
      "mesh": 1
    },
    {
      "name": "Sphere_Sphere.005_Material.010",
      "mesh": 2
    },
    {
      "name": "Sphere_Sphere.005_Material.011",
      "mesh": 3
    }
  ],
  "scene": 0,
  "scenes": [
    {
      "nodes": [
        0
      ]
    }
  ]
}
